<?xml version="1.0"?>
<svg xmlns="http://www.w3.org/2000/svg" xmlns:xlink="http://www.w3.org/1999/xlink" version="1.1" id="Capa_1" x="0px" y="0px" viewBox="0 0 496.944 496.944" style="enable-background:new 0 0 496.944 496.944;" xml:space="preserve" width="512" height="512" class=""><g><g>
	<g>
		<path d="M496.944,48.472v-48h-137.76c-12.184,0-22.432,9.128-23.832,21.216l-12.464,106.784H192.944v48h16.76l12.432,124.296    c-8.6-30.144-36.328-52.296-69.192-52.296c-34.312,0-63.04,24.144-70.224,56.32l-66.552-139.76l-14.448,6.88L77.568,331.2    c-30.304,8.488-52.624,36.288-52.624,69.272c0,5.44,0.672,10.776,1.856,16H12l-12,24l28,56h220.944h28.944h170.296l32-320h16.76    v-48H374.008l10-80H496.944z M262.56,384.376c-18.696-0.52-29.128-6.824-39.144-12.984c-8.72-5.376-17.728-10.92-30.472-10.92    c-9.464,0-19.52,3.864-29.968,11.376c-0.272-0.624-0.6-1.216-0.888-1.832c10.296-15.784,27.92-25.544,46.856-25.544    C234.224,344.472,255.624,361.32,262.56,384.376z M224.264,330.152c0.2-1.496,0.248-3.016,0.36-4.52l0.472,4.736    C224.816,330.304,224.544,330.216,224.264,330.152z M272.944,328.472c0,22.608,10.496,42.792,26.848,56h-20.696    c-4.776-20.928-18.672-38.392-37.288-47.992l-6.416-64.008h64.392C283.44,285.68,272.944,305.864,272.944,328.472z     M344.944,272.472c30.88,0,56,25.128,56,56s-25.12,56-56,56s-56-25.128-56-56S314.064,272.472,344.944,272.472z M167.84,388.344    c9.296-7.68,17.96-11.872,25.104-11.872c8.208,0,14.336,3.768,22.08,8.536c11.192,6.896,25.112,15.464,49.92,15.464    c0,5.472-0.784,10.832-2.32,16h-95.536c1.184-5.224,1.856-10.56,1.856-16C168.944,396.328,168.512,392.296,167.84,388.344z     M152.944,264.472c25.28,0,46.68,16.848,53.616,39.904c-18.696-0.52-29.128-6.824-39.144-12.984    c-8.72-5.376-17.728-10.92-30.472-10.92c-12.336,0-24.08,6.496-33.52,13.928C112.816,276.632,131.48,264.472,152.944,264.472z     M136.944,296.472c8.208,0,14.336,3.768,22.08,8.536c11.192,6.896,25.112,15.464,49.92,15.464c0,2.704-0.248,5.384-0.624,8.04    c-21.64,0.192-41.936,10.232-55.36,26.824c-13.088-16.208-33.032-26.64-55.392-26.832c-0.256-1.808-0.376-3.624-0.464-5.456    C104.528,313.984,121.944,296.472,136.944,296.472z M96.944,344.472c25.28,0,46.68,16.848,53.616,39.904    c-18.696-0.52-29.128-6.824-39.144-12.984c-8.72-5.376-17.728-10.92-30.472-10.92c-12.336,0-24.08,6.496-33.52,13.928    C56.816,356.632,75.48,344.472,96.944,344.472z M80.944,376.472c8.208,0,14.336,3.768,22.08,8.536    c11.192,6.896,25.112,15.464,49.92,15.464c0,5.472-0.784,10.832-2.32,16H43.264c-1.296-4.336-1.984-8.816-2.192-13.376    C48.472,394.04,65.92,376.472,80.944,376.472z M248.944,448.472v16H276l-8,16h-19.056H37.888l-8-16h203.056v-16H21.888l-4-8l4-8    H284l4,8l-4,8H248.944z M433.704,480.472H285.888l20-40l-12-24H279.08c1.192-5.224,1.864-10.56,1.864-16h160.76L433.704,480.472z     M443.304,384.472h-53.208c16.352-13.208,26.848-33.392,26.848-56c0-22.608-10.496-42.792-26.848-56h64.408L443.304,384.472z     M480.944,144.472v16h-32v16h15.16l-8,80H233.792l-8.008-80h207.16v-16h-224v-16H480.944z M369.88,32.472l-12,96H339    l12.24-104.928c0.472-4.032,3.888-7.072,7.944-7.072h121.76v16H369.88z" data-original="#000000" class="active-path" style="fill:#7D37A7" data-old_color="#000000"/>
	</g>
</g></g> </svg>
